<svg width="24" height="24" viewBox="0 0 24 24" fill="none" xmlns="http://www.w3.org/2000/svg">
<path d="M12 24C9.62663 24 7.30655 23.2962 5.33316 21.9776C3.35977 20.6591 1.8217 18.7849 0.913451 16.5922C0.00519943 14.3995 -0.232441 11.9867 0.230582 9.65892C0.693605 7.33115 1.83649 5.19295 3.51472 3.51472C5.19295 1.83649 7.33115 0.693605 9.65892 0.230582C11.9867 -0.232441 14.3995 0.00519943 16.5922 0.913451C18.7849 1.8217 20.6591 3.35977 21.9776 5.33316C23.2962 7.30655 24 9.62663 24 12C24 15.1826 22.7357 18.2348 20.4853 20.4853C18.2348 22.7357 15.1826 24 12 24ZM12 2.00001C10.0222 2.00001 8.08879 2.58649 6.4443 3.68531C4.79981 4.78412 3.51809 6.34591 2.76121 8.17317C2.00433 10.0004 1.8063 12.0111 2.19215 13.9509C2.578 15.8907 3.53041 17.6725 4.92894 19.0711C6.32746 20.4696 8.10929 21.422 10.0491 21.8079C11.9889 22.1937 13.9996 21.9957 15.8268 21.2388C17.6541 20.4819 19.2159 19.2002 20.3147 17.5557C21.4135 15.9112 22 13.9778 22 12C22 10.6868 21.7413 9.38643 21.2388 8.17317C20.7362 6.95991 19.9997 5.85752 19.0711 4.92894C18.1425 4.00035 17.0401 3.26376 15.8268 2.76121C14.6136 2.25866 13.3132 2.00001 12 2.00001Z" fill="white"/>
<path d="M10 17C9.86839 17.0008 9.73793 16.9755 9.61609 16.9258C9.49425 16.876 9.38344 16.8027 9.29 16.71L5.29 12.71C5.12617 12.5187 5.04057 12.2726 5.05029 12.0209C5.06001 11.7693 5.16434 11.5305 5.34244 11.3524C5.52053 11.1743 5.75927 11.07 6.01095 11.0603C6.26262 11.0506 6.5087 11.1362 6.7 11.3L10 14.59L17.29 7.3C17.4813 7.13617 17.7274 7.05057 17.979 7.06029C18.2307 7.07001 18.4695 7.17434 18.6476 7.35243C18.8257 7.53053 18.93 7.76927 18.9397 8.02094C18.9494 8.27262 18.8638 8.5187 18.7 8.71L10.7 16.71C10.5137 16.8947 10.2623 16.9989 10 17Z" fill="white"/>
</svg>
