<svg width="38" height="38" viewBox="0 0 38 38" fill="none" xmlns="http://www.w3.org/2000/svg">
<path fill-rule="evenodd" clip-rule="evenodd" d="M35.5 13.406H24.58V2.5C24.58 1.16015 23.2401 0 21.785 0H16.7655C15.3046 0 13.9648 1.1758 13.9648 2.5V13.406H3.03125C1.6914 13.406 0.53125 14.7361 0.53125 16.2068V21.2108C0.53125 22.7108 1.70705 24.0214 3.03125 24.0214H13.9513V35.0858C13.9513 36.4003 15.2911 37.4354 16.7521 37.4354H21.7655C23.2206 37.4354 24.5604 36.4003 24.5604 35.0858V24.0253H35.5C36.8398 24.0253 38 22.7011 38 21.2148V16.2108C38 14.7401 36.8242 13.41 35.5 13.41V13.406Z" fill="white"/>
</svg>
