<svg width="24" height="22" viewBox="0 0 24 22" fill="none" xmlns="http://www.w3.org/2000/svg">
<path d="M9.4875 21.9201H1.88625C1.68375 21.9201 1.5225 21.7588 1.5225 21.5563V8.53259C1.5225 8.33009 1.68375 8.16884 1.88625 8.16884H9.4875C9.69 8.16884 9.85125 8.33009 9.85125 8.53259V21.5563C9.85125 21.7588 9.69 21.9201 9.4875 21.9201ZM2.25 21.1926H9.12375V8.89634H2.25V21.1926Z" fill="white"/>
<path d="M22.1138 21.9201H14.5125C14.31 21.9201 14.1488 21.7588 14.1488 21.5563V8.53259C14.1488 8.33009 14.31 8.16884 14.5125 8.16884H22.1138C22.3162 8.16884 22.4775 8.33009 22.4775 8.53259V21.5563C22.4775 21.7588 22.3125 21.9201 22.1138 21.9201ZM14.8762 21.1926H21.75V8.89634H14.8762V21.1926Z" fill="white"/>
<path d="M22.8113 8.89634H14.5125C14.31 8.89634 14.1488 8.73509 14.1488 8.53259C14.1488 8.33009 14.31 8.16884 14.5125 8.16884H22.8113C23.0662 8.16884 23.2762 7.96259 23.2762 7.70384V6.05009C23.2762 5.79509 23.07 5.58509 22.8113 5.58509H14.5125C14.31 5.58509 14.1488 5.42384 14.1488 5.22134C14.1488 5.01884 14.31 4.85759 14.5125 4.85759H22.8113C23.4675 4.85759 24 5.39009 24 6.04634V7.70009C24 8.36384 23.4675 8.89634 22.8113 8.89634Z" fill="white"/>
<path d="M9.4875 8.89634H1.18875C0.5325 8.89634 0 8.36384 0 7.70384V6.05009C0 5.39384 0.5325 4.86134 1.18875 4.86134H9.4875C9.69 4.86134 9.85125 5.02259 9.85125 5.22509C9.85125 5.42759 9.69 5.58884 9.4875 5.58884H1.18875C0.93375 5.58884 0.72375 5.79509 0.72375 6.05384V7.70759C0.72375 7.96259 0.93 8.17259 1.18875 8.17259H9.4875C9.69 8.17259 9.85125 8.33384 9.85125 8.53634C9.85125 8.73884 9.69 8.89634 9.4875 8.89634Z" fill="white"/>
<path d="M14.5125 21.9201H9.4875C9.285 21.9201 9.12375 21.7588 9.12375 21.5563V5.22509C9.12375 5.02259 9.285 4.86134 9.4875 4.86134H14.5125C14.715 4.86134 14.8762 5.02259 14.8762 5.22509V21.5563C14.8762 21.7588 14.715 21.9201 14.5125 21.9201ZM9.85125 21.1926H14.1488V5.58884H9.85125V21.1926Z" fill="white"/>
<path d="M14.5125 5.58884C14.3625 5.58884 14.2238 5.49884 14.1713 5.34884C14.1038 5.16134 14.2013 4.95134 14.3888 4.88384L17.0925 3.89759C17.7788 3.64634 17.8988 2.96759 17.91 2.58134C17.9325 1.80884 17.55 0.961336 17.0925 0.762586C17.0138 0.728836 16.7738 0.627586 16.4212 0.980086C14.7938 2.60759 12.3 5.43509 12.2775 5.46509C12.21 5.54384 12.1125 5.58884 12.0075 5.58884C11.9025 5.58509 11.805 5.54759 11.7338 5.46884C11.7 5.43134 8.4825 1.87634 7.58625 0.980086C7.23 0.627586 6.99375 0.728836 6.915 0.762586C6.4575 0.961336 6.075 1.80884 6.0975 2.58134C6.10875 2.96384 6.22875 3.64634 6.915 3.89759L9.61875 4.88384C9.80625 4.95134 9.90375 5.16134 9.83625 5.34884C9.76875 5.53634 9.55875 5.63384 9.37125 5.56634L6.6675 4.58009C5.8725 4.29134 5.4 3.56759 5.37375 2.60384C5.34375 1.51634 5.895 0.413836 6.63 0.0988364C6.91875 -0.0249136 7.4925 -0.141163 8.10375 0.470087C8.865 1.23509 11.1975 3.79634 12.0037 4.68509C12.6975 3.90509 14.5875 1.79759 15.9113 0.470087C16.5225 -0.141163 17.0963 -0.0249136 17.385 0.0988364C18.12 0.417586 18.6712 1.51634 18.6413 2.60384C18.615 3.57134 18.1425 4.29134 17.3475 4.58009L14.6437 5.56634C14.595 5.58134 14.5538 5.58884 14.5125 5.58884Z" fill="white"/>
</svg>
