<svg width="21" height="23" viewBox="0 0 21 23" fill="none" xmlns="http://www.w3.org/2000/svg">
<path d="M13.3916 2.70901L12.3184 2.37111C11.8555 2.22462 11.4873 1.86526 11.332 1.40431L10.8955 0.114257C10.8906 0.0966795 10.8809 0.08203 10.8701 0.0673825C10.8643 0.0605467 10.8594 0.0537107 10.8525 0.0478512C10.8359 0.0332027 10.8174 0.0195312 10.7969 0.0117188C10.79 0.008789 10.7822 0.00683606 10.7744 0.00488281C10.7627 0.000976562 10.749 0 10.7363 0C10.7227 0 10.71 0.000976562 10.6973 0.00488281C10.6895 0.00683606 10.6816 0.008789 10.6748 0.0117188C10.6504 0.0214845 10.6309 0.0341798 10.6152 0.0517588C10.6074 0.0585948 10.6016 0.0664072 10.5967 0.0742197C10.5889 0.086915 10.582 0.0996097 10.5771 0.11426L10.1406 1.40431C9.9834 1.86526 9.61717 2.22461 9.15332 2.37111L8.08007 2.70901C7.99902 2.7344 7.94336 2.81057 7.94336 2.89553C7.94336 2.97659 7.99414 3.04983 8.07031 3.07913L9.24316 3.52933C9.65526 3.68753 9.97948 4.0176 10.1299 4.4346L10.5762 5.66313C10.5801 5.67387 10.5879 5.68071 10.5938 5.69047C10.5967 5.69633 10.6006 5.70219 10.6045 5.70707C10.6113 5.71586 10.6182 5.72465 10.627 5.73149C10.6406 5.74418 10.6563 5.75493 10.6738 5.76274C10.6846 5.76664 10.6953 5.77055 10.7061 5.77153L10.7412 5.77543C10.752 5.77543 10.7627 5.77446 10.7734 5.77153C10.7842 5.77055 10.7949 5.76664 10.8057 5.76274C10.8223 5.75493 10.8379 5.74418 10.8516 5.73247C10.8604 5.72465 10.8682 5.71586 10.875 5.70708C10.8799 5.70122 10.8828 5.69438 10.8877 5.68754C10.8926 5.67973 10.8994 5.6729 10.9024 5.66313L11.3487 4.43461C11.5 4.01858 11.8242 3.68753 12.2364 3.52933L13.4092 3.07913C13.4854 3.04983 13.5342 2.97659 13.5342 2.89553C13.5293 2.81058 13.4746 2.7344 13.3916 2.70901Z" fill="black"/>
<path d="M20.5731 7.81151L18.9432 7.29783C18.2401 7.07518 17.6815 6.53026 17.4452 5.83006L16.7821 3.87108C16.7743 3.84472 16.7596 3.82226 16.744 3.80077C16.7362 3.791 16.7274 3.78026 16.7177 3.7705C16.6932 3.74804 16.6649 3.72753 16.6327 3.71581C16.6229 3.7119 16.6102 3.708 16.5985 3.70604C16.58 3.70019 16.5604 3.69823 16.5399 3.69823C16.5194 3.69823 16.4999 3.70019 16.4813 3.70604C16.4686 3.708 16.4569 3.7119 16.4471 3.71581C16.411 3.73046 16.3807 3.74999 16.3563 3.77636C16.3446 3.78612 16.3358 3.79882 16.328 3.81054C16.3163 3.82909 16.3055 3.84862 16.2977 3.87109L15.6347 5.83006C15.3964 6.52928 14.8397 7.07519 14.1347 7.29784L12.5048 7.81151C12.3817 7.8496 12.2968 7.96581 12.2968 8.09471C12.2968 8.21776 12.3739 8.32909 12.4892 8.37401L14.2704 9.05761C14.8974 9.29785 15.3886 9.79981 15.6171 10.4316L16.2948 12.2978C16.3007 12.3135 16.3124 12.3252 16.3212 12.3389C16.3261 12.3476 16.3309 12.3564 16.3378 12.3642C16.3485 12.3779 16.3593 12.3906 16.372 12.4023C16.3934 12.4209 16.4169 12.4385 16.4432 12.4492C16.4598 12.4551 16.4755 12.4609 16.4921 12.4639L16.5448 12.4697C16.5614 12.4697 16.577 12.4678 16.5936 12.4639C16.6102 12.4619 16.6259 12.456 16.6425 12.4492C16.6679 12.4375 16.6913 12.4219 16.7118 12.4033C16.7255 12.3916 16.7362 12.3789 16.747 12.3642C16.7538 12.3545 16.7596 12.3447 16.7655 12.334C16.7723 12.3213 16.7831 12.3115 16.788 12.2978L17.4657 10.4316C17.6962 9.79883 18.1874 9.29784 18.8143 9.05761L20.5956 8.37401C20.7108 8.32909 20.786 8.21874 20.786 8.09471C20.7811 7.96581 20.6981 7.85057 20.5731 7.81151Z" fill="black"/>
<path d="M7.85636 6.49501C7.82315 6.48329 7.78605 6.48036 7.74894 6.48036C7.71183 6.48036 7.67472 6.48427 7.64151 6.49501C7.61905 6.49891 7.59757 6.50575 7.57901 6.51356C7.51261 6.53993 7.45694 6.57704 7.413 6.62391C7.39054 6.64247 7.37589 6.66493 7.36124 6.68739C7.33878 6.72059 7.32023 6.7577 7.30558 6.79774L6.09463 10.375C5.65908 11.6523 4.64345 12.6494 3.35538 13.0557L0.379875 13.9942C0.155265 14.0645 0 14.2745 0 14.5108C0 14.7354 0.140625 14.9395 0.350575 15.0206L3.60357 16.2686C4.7481 16.7081 5.6446 17.6241 6.06255 18.7794L7.29888 22.1876C7.30962 22.216 7.3311 22.2365 7.34673 22.2628C7.35552 22.2794 7.36528 22.2951 7.37603 22.3097C7.39556 22.3351 7.41411 22.3576 7.43853 22.379C7.47759 22.4142 7.51958 22.4445 7.56841 22.465C7.59771 22.4767 7.62798 22.4874 7.65728 22.4914L7.75298 22.5001C7.78227 22.5001 7.81255 22.4962 7.84185 22.4894C7.87114 22.4855 7.90142 22.4748 7.93071 22.463C7.97759 22.4425 8.01958 22.4123 8.05766 22.3781C8.08208 22.3566 8.10259 22.3332 8.12212 22.3068C8.13481 22.2892 8.14556 22.2707 8.1563 22.2521C8.16899 22.2287 8.18853 22.2111 8.19731 22.1857L9.43364 18.7774C9.85454 17.6222 10.752 16.7061 11.8965 16.2667L15.1495 15.0186C15.3605 14.9376 15.4962 14.7345 15.4962 14.5089C15.4962 14.2725 15.3448 14.0626 15.1154 13.9923L12.1399 13.0548C10.8547 12.6485 9.83616 11.6524 9.40461 10.374L8.19366 6.79677C8.17901 6.74891 8.15265 6.7079 8.12335 6.66786C8.1087 6.64931 8.09405 6.63075 8.0755 6.6122C8.03057 6.57118 7.97979 6.53407 7.92023 6.51259C7.90069 6.50673 7.87823 6.49891 7.85675 6.49501L7.85636 6.49501Z" fill="black"/>
</svg>
