<svg width="132" height="95" viewBox="0 0 132 95" fill="none" xmlns="http://www.w3.org/2000/svg">
<path d="M65.5059 35.6C64.5174 35.6 63.7092 36.4082 63.7092 37.4035V58.7829C63.7092 59.7782 64.5174 60.5795 65.5059 60.5795H76.7007C77.696 60.5795 78.4974 59.7782 78.4974 58.7829V37.4035C78.4974 36.4082 77.696 35.6 76.7007 35.6H65.5059ZM74.9041 56.9876H67.3011V39.1987H74.9041V56.9876ZM27.7068 41.9524C26.7184 41.9524 25.9102 42.7524 25.9102 43.749V58.7829C25.9102 59.7782 26.7184 60.5795 27.7068 60.5795H38.9017C39.8969 60.5795 40.7051 59.7782 40.7051 58.7829V43.749C40.7051 42.7538 39.8969 41.9524 38.9017 41.9524H27.7068ZM37.1064 56.9876H29.5103V45.5457H37.1064V56.9876ZM46.6097 25.1232C45.6145 25.1232 44.8131 25.9246 44.8131 26.9199V58.7843C44.8131 59.7795 45.6145 60.5809 46.6097 60.5809H57.8046C58.7999 60.5809 59.6012 59.7795 59.6012 58.7843V26.9199C59.6012 25.9246 58.7999 25.1232 57.8046 25.1232H46.6097ZM56.0093 56.9876H48.4064V28.7151H56.0093V56.9876ZM10.8613 58.7829C10.8613 59.7782 10.0531 60.5795 9.05781 60.5795H2.21119C1.21594 60.5795 0.414551 59.7782 0.414551 58.7829C0.414551 57.7877 1.21594 56.9863 2.21119 56.9863H9.05917C10.0531 56.9876 10.8613 57.7877 10.8613 58.7829ZM10.8613 47.6181C10.8613 48.6065 10.0531 49.4147 9.05781 49.4147H6.67821C5.68296 49.4147 4.88157 48.6065 4.88157 47.6181C4.88157 46.6228 5.68296 45.8146 6.67821 45.8146H9.05781C10.0531 45.8146 10.8613 46.6228 10.8613 47.6181ZM10.8613 36.4451C10.8613 37.4403 10.0531 38.2417 9.05781 38.2417H2.21119C1.21594 38.2417 0.414551 37.4403 0.414551 36.4451C0.414551 35.4566 1.21594 34.6484 2.21119 34.6484H9.05917C10.0531 34.6484 10.8613 35.4566 10.8613 36.4451ZM10.8613 25.2802C10.8613 26.2755 10.0531 27.0769 9.05781 27.0769H6.67821C5.68296 27.0769 4.88157 26.2755 4.88157 25.2802C4.88157 24.285 5.68296 23.4836 6.67821 23.4836H9.05781C10.0531 23.4836 10.8613 24.285 10.8613 25.2802ZM10.8613 14.114C10.8613 15.1025 10.0531 15.9107 9.05781 15.9107H2.21119C1.21594 15.9107 0.414551 15.1025 0.414551 14.114C0.414551 13.1188 1.21594 12.3106 2.21119 12.3106H9.05917C10.0531 12.3106 10.8613 13.1188 10.8613 14.114ZM31.9267 32.8682C33.7083 32.8682 35.3166 32.1419 36.4839 30.9828C37.6511 29.8155 38.3692 28.1991 38.3692 26.4257C38.3692 25.5505 38.1972 24.7123 37.875 23.9491L47.4767 16.2643C48.532 17.0124 49.8112 17.4466 51.1955 17.4466C52.9772 17.4466 54.5854 16.7284 55.7527 15.5612C55.7977 15.5093 55.8428 15.4642 55.8946 15.411L63.6177 19.362C63.5427 19.7593 63.5058 20.1702 63.5058 20.5893C63.5058 22.3627 64.2239 23.9792 65.3912 25.1396C66.5584 26.3069 68.168 27.0332 69.9483 27.0332C71.7299 27.0332 73.3382 26.3069 74.5054 25.1478C75.6727 23.9805 76.3908 22.3641 76.3908 20.5907C76.3908 20.1047 76.3389 19.6323 76.2338 19.1831L85.6703 14.0198L85.6771 14.0349C86.8444 15.1953 88.4608 15.9202 90.2342 15.9202C92.0158 15.9202 93.6241 15.1939 94.7914 14.0267C95.9586 12.8662 96.6767 11.2498 96.6767 9.47636C96.6767 7.69474 95.9586 6.0865 94.7914 4.91923C93.6241 3.75196 92.0145 3.02566 90.2342 3.02566C88.4608 3.02566 86.8444 3.75196 85.6771 4.91923C84.5166 6.0865 83.7917 7.6961 83.7917 9.47636C83.7917 9.95555 83.8436 10.4266 83.9487 10.8757L74.5123 16.039L74.5054 16.0322C73.3382 14.8649 71.7286 14.1386 69.9483 14.1386C68.1667 14.1386 66.5584 14.8649 65.3912 16.0322C65.3461 16.0772 65.2942 16.1291 65.2492 16.1742L57.5193 12.2232C57.6012 11.8259 57.6394 11.4218 57.6394 11.004C57.6394 9.22243 56.9213 7.61419 55.754 6.44692C54.5868 5.27965 52.9772 4.56154 51.1969 4.56154C49.4153 4.56154 47.807 5.27965 46.6398 6.44692C45.4725 7.61419 44.7544 9.22379 44.7544 11.004C44.7544 11.8792 44.9264 12.7174 45.2404 13.4737L35.647 21.1586C34.5917 20.4173 33.3124 19.9832 31.9281 19.9832C30.1465 19.9832 28.5382 20.7013 27.371 21.8685C26.2037 23.0358 25.4856 24.6454 25.4856 26.4257C25.4856 28.1991 26.2037 29.8155 27.371 30.9828C28.5369 32.1419 30.1465 32.8682 31.9267 32.8682ZM88.2246 7.45446C88.7407 6.9384 89.4519 6.6244 90.2383 6.6244C91.0247 6.6244 91.7428 6.9384 92.2589 7.45446C92.7681 7.97052 93.0889 8.6818 93.0889 9.475C93.0889 10.2614 92.7667 10.9713 92.2589 11.4887C91.7428 12.0048 91.0247 12.3188 90.2383 12.3188C89.4519 12.3188 88.742 12.0048 88.2246 11.4887C87.7085 10.9727 87.3945 10.2614 87.3945 9.475C87.3945 8.6818 87.7085 7.97052 88.2246 7.45446ZM67.9373 18.5674C68.4466 18.0514 69.1647 17.7374 69.9497 17.7374C70.736 17.7374 71.446 18.0514 71.9634 18.5674C72.4794 19.0835 72.8016 19.7947 72.8016 20.5879C72.8016 21.3729 72.4794 22.0842 71.9634 22.6003C71.4473 23.1163 70.736 23.4303 69.9497 23.4303C69.1633 23.4303 68.4452 23.1163 67.9373 22.6003C67.4213 22.0842 67.0991 21.3729 67.0991 20.5879C67.0991 19.7947 67.4213 19.0835 67.9373 18.5674ZM49.1846 8.98897C49.6938 8.47292 50.4119 8.15073 51.1969 8.15073C51.9819 8.15073 52.6932 8.47292 53.2106 8.98897C53.7267 9.50503 54.0489 10.2163 54.0489 11.0013C54.0489 11.7877 53.7267 12.4976 53.2106 13.015C52.6946 13.5311 51.9833 13.8533 51.1969 13.8533C50.4105 13.8533 49.6924 13.5311 49.1846 13.015C48.6685 12.499 48.3463 11.7877 48.3463 11.0013C48.3463 10.2163 48.6671 9.50503 49.1846 8.98897ZM29.9144 24.4038C30.4304 23.8945 31.1417 23.5737 31.9281 23.5737C32.7145 23.5737 33.4244 23.8959 33.9418 24.4038C34.4579 24.9198 34.7801 25.6379 34.7801 26.4243C34.7801 27.2107 34.4579 27.9206 33.9418 28.438C33.4257 28.9541 32.7145 29.2681 31.9281 29.2681C31.1417 29.2681 30.4318 28.9541 29.9144 28.438C29.3983 27.9219 29.0761 27.2107 29.0761 26.4243C29.0761 25.6393 29.3983 24.9212 29.9144 24.4038ZM130.379 85.4089L117.268 72.3055C119.356 68.6835 120.217 64.5455 119.835 60.5045C119.416 56.0374 117.507 51.696 114.102 48.2911C110.212 44.4071 105.122 42.4616 100.026 42.4616C99.1478 42.4616 98.2699 42.5231 97.3989 42.6391V21.3061C97.3989 20.3108 96.5907 19.5094 95.6023 19.5094H84.4074C83.4122 19.5094 82.6108 20.3108 82.6108 21.3061V52.7281C80.9534 55.718 80.1192 59.0396 80.1192 62.368C80.1192 63.766 80.2708 65.164 80.5643 66.536H19.9769V2.22291C19.9769 1.22766 19.1687 0.42627 18.1734 0.42627C17.185 0.42627 16.3768 1.22629 16.3768 2.22291V68.3313C16.3768 69.3266 17.185 70.1348 18.1734 70.1348H81.6988C82.6695 72.4256 84.0825 74.5731 85.9488 76.4435C89.3168 79.8033 93.5968 81.7119 98.0051 82.1611C102.001 82.572 106.102 81.7651 109.709 79.7514L122.873 92.915C123.876 93.9252 125.2 94.4263 126.525 94.4263C127.849 94.4263 129.173 93.9252 130.177 92.915L130.274 92.8098C130.31 92.7798 130.34 92.7498 130.379 92.7197C131.382 91.7095 131.883 90.3852 131.883 89.0609C131.883 87.7435 131.382 86.4192 130.379 85.4089ZM93.807 23.1027V43.461C91.0411 44.3688 88.4348 45.8993 86.2041 48.0509V23.1027H93.807ZM111.558 73.9001C111.139 74.3192 110.728 74.6933 110.33 75.0155C109.941 75.3377 109.522 75.6435 109.096 75.9288C109.029 75.9657 108.969 76.0107 108.909 76.0558C105.736 78.1214 101.994 78.9664 98.3573 78.6005C94.7572 78.2333 91.2554 76.6619 88.4935 73.9014C85.3057 70.7136 83.7193 66.5456 83.7193 62.3694C83.7193 58.1931 85.3057 54.0183 88.4935 50.8373C91.6745 47.6481 95.8508 46.0617 100.026 46.0617C104.202 46.0617 108.37 47.6481 111.558 50.8359C114.356 53.6346 115.928 57.1815 116.265 60.8266C116.617 64.5087 115.711 68.2808 113.563 71.4686C113.518 71.5287 113.481 71.5887 113.443 71.6488L113.436 71.6638L113.421 71.6788C113.414 71.687 113.399 71.7089 113.369 71.7539C113.085 72.1649 112.8 72.5403 112.516 72.8693C112.262 73.1738 111.94 73.5178 111.558 73.9001ZM127.834 90.1763C127.804 90.2064 127.774 90.2432 127.744 90.2732L127.639 90.3702V90.377L127.632 90.3702C127.333 90.6774 126.929 90.8262 126.525 90.8262C126.121 90.8262 125.716 90.676 125.409 90.3702L112.725 77.6858C113.219 77.2749 113.683 76.8626 114.102 76.4435C114.432 76.1063 114.791 75.7172 115.158 75.283L127.835 87.9524C128.142 88.2595 128.291 88.6554 128.291 89.0596C128.291 89.465 128.141 89.8691 127.834 90.1763Z" fill="#117463"/>
</svg>
