<svg width="1920" height="1080" viewBox="0 0 1920 1080" fill="none" xmlns="http://www.w3.org/2000/svg">
<g clip-path="url(#clip0_128_6486)">
<g opacity="0.05" clip-path="url(#clip1_128_6486)">
<rect x="0.5" y="0.5" width="47" height="1079" stroke="#1AC1A4"/>
<rect x="48.5" y="0.5" width="47" height="1079" stroke="#1AC1A4"/>
<rect x="96.5" y="0.5" width="47" height="1079" stroke="#1AC1A4"/>
<rect x="144.5" y="0.5" width="47" height="1079" stroke="#1AC1A4"/>
<rect x="192.5" y="0.5" width="47" height="1079" stroke="#1AC1A4"/>
<rect x="240.5" y="0.5" width="47" height="1079" stroke="#1AC1A4"/>
<rect x="288.5" y="0.5" width="47" height="1079" stroke="#1AC1A4"/>
<rect x="336.5" y="0.5" width="47" height="1079" stroke="#1AC1A4"/>
<rect x="384.5" y="0.5" width="47" height="1079" stroke="#1AC1A4"/>
<rect x="432.5" y="0.5" width="47" height="1079" stroke="#1AC1A4"/>
<rect x="480.5" y="0.5" width="47" height="1079" stroke="#1AC1A4"/>
<rect x="528.5" y="0.5" width="47" height="1079" stroke="#1AC1A4"/>
<rect x="576.5" y="0.5" width="47" height="1079" stroke="#1AC1A4"/>
<rect x="624.5" y="0.5" width="47" height="1079" stroke="#1AC1A4"/>
<rect x="672.5" y="0.5" width="47" height="1079" stroke="#1AC1A4"/>
<rect x="720.5" y="0.5" width="47" height="1079" stroke="#1AC1A4"/>
<rect x="768.5" y="0.5" width="47" height="1079" stroke="#1AC1A4"/>
<rect x="816.5" y="0.5" width="47" height="1079" stroke="#1AC1A4"/>
<rect x="864.5" y="0.5" width="47" height="1079" stroke="#1AC1A4"/>
<rect x="912.5" y="0.5" width="47" height="1079" stroke="#1AC1A4"/>
<rect x="960.5" y="0.5" width="47" height="1079" stroke="#1AC1A4"/>
<rect x="1008.5" y="0.5" width="47" height="1079" stroke="#1AC1A4"/>
<rect x="1056.5" y="0.5" width="47" height="1079" stroke="#1AC1A4"/>
<rect x="1104.5" y="0.5" width="47" height="1079" stroke="#1AC1A4"/>
<rect x="1152.5" y="0.5" width="47" height="1079" stroke="#1AC1A4"/>
<rect x="1200.5" y="0.5" width="47" height="1079" stroke="#1AC1A4"/>
<rect x="1248.5" y="0.5" width="47" height="1079" stroke="#1AC1A4"/>
<rect x="1296.5" y="0.5" width="47" height="1079" stroke="#1AC1A4"/>
<rect x="1344.5" y="0.5" width="47" height="1079" stroke="#1AC1A4"/>
<rect x="1392.5" y="0.5" width="47" height="1079" stroke="#1AC1A4"/>
<rect x="1440.5" y="0.5" width="47" height="1079" stroke="#1AC1A4"/>
<rect x="1488.5" y="0.5" width="47" height="1079" stroke="#1AC1A4"/>
<rect x="1536.5" y="0.5" width="47" height="1079" stroke="#1AC1A4"/>
<rect x="1584.5" y="0.5" width="47" height="1079" stroke="#1AC1A4"/>
<rect x="1632.5" y="0.5" width="47" height="1079" stroke="#1AC1A4"/>
<rect x="1680.5" y="0.5" width="47" height="1079" stroke="#1AC1A4"/>
<rect x="1728.5" y="0.5" width="47" height="1079" stroke="#1AC1A4"/>
<rect x="1776.5" y="0.5" width="47" height="1079" stroke="#1AC1A4"/>
<rect x="1824.5" y="0.5" width="47" height="1079" stroke="#1AC1A4"/>
<rect x="1872.5" y="0.5" width="47" height="1079" stroke="#1AC1A4"/>
<rect x="1919.5" y="0.5" width="47" height="1919" transform="rotate(90 1919.5 0.5)" stroke="#1AC1A4"/>
<rect x="1919.5" y="48.5" width="47" height="1919" transform="rotate(90 1919.5 48.5)" stroke="#1AC1A4"/>
<rect x="1919.5" y="96.5005" width="47" height="1919" transform="rotate(90 1919.5 96.5005)" stroke="#1AC1A4"/>
<rect x="1919.5" y="144.5" width="47" height="1919" transform="rotate(90 1919.5 144.5)" stroke="#1AC1A4"/>
<rect x="1919.5" y="192.5" width="47" height="1919" transform="rotate(90 1919.5 192.5)" stroke="#1AC1A4"/>
<rect x="1919.5" y="240.5" width="47" height="1919" transform="rotate(90 1919.5 240.5)" stroke="#1AC1A4"/>
<rect x="1919.5" y="288.5" width="47" height="1919" transform="rotate(90 1919.5 288.5)" stroke="#1AC1A4"/>
<rect x="1919.5" y="336.5" width="47" height="1919" transform="rotate(90 1919.5 336.5)" stroke="#1AC1A4"/>
<rect x="1919.5" y="384.501" width="47" height="1919" transform="rotate(90 1919.5 384.501)" stroke="#1AC1A4"/>
<rect x="1919.5" y="432.501" width="47" height="1919" transform="rotate(90 1919.5 432.501)" stroke="#1AC1A4"/>
<rect x="1919.5" y="480.501" width="47" height="1919" transform="rotate(90 1919.5 480.501)" stroke="#1AC1A4"/>
<rect x="1919.5" y="528.501" width="47" height="1919" transform="rotate(90 1919.5 528.501)" stroke="#1AC1A4"/>
<rect x="1919.5" y="576.501" width="47" height="1919" transform="rotate(90 1919.5 576.501)" stroke="#1AC1A4"/>
<rect x="1919.5" y="624.501" width="47" height="1919" transform="rotate(90 1919.5 624.501)" stroke="#1AC1A4"/>
<rect x="1919.5" y="672.501" width="47" height="1919" transform="rotate(90 1919.5 672.501)" stroke="#1AC1A4"/>
<rect x="1919.5" y="720.501" width="47" height="1919" transform="rotate(90 1919.5 720.501)" stroke="#1AC1A4"/>
<rect x="1919.5" y="768.501" width="47" height="1919" transform="rotate(90 1919.5 768.501)" stroke="#1AC1A4"/>
<rect x="1919.5" y="816.501" width="47" height="1919" transform="rotate(90 1919.5 816.501)" stroke="#1AC1A4"/>
<rect x="1919.5" y="864.501" width="47" height="1919" transform="rotate(90 1919.5 864.501)" stroke="#1AC1A4"/>
<rect x="1919.5" y="912.501" width="47" height="1919" transform="rotate(90 1919.5 912.501)" stroke="#1AC1A4"/>
<rect x="1919.5" y="960.501" width="47" height="1919" transform="rotate(90 1919.5 960.501)" stroke="#1AC1A4"/>
<rect x="1919.5" y="1008.5" width="47" height="1919" transform="rotate(90 1919.5 1008.5)" stroke="#1AC1A4"/>
<rect x="1919.5" y="1056.5" width="47" height="1919" transform="rotate(90 1919.5 1056.5)" stroke="#1AC1A4"/>
</g>
</g>
<defs>
<clipPath id="clip0_128_6486">
<rect width="1920" height="1080" fill="white"/>
</clipPath>
<clipPath id="clip1_128_6486">
<rect width="1920" height="1080" fill="white"/>
</clipPath>
</defs>
</svg>
