<svg width="61" height="82" viewBox="0 0 61 82" fill="none" xmlns="http://www.w3.org/2000/svg">
<path d="M51.1394 53.8844L58.88 68.1053C59.2857 68.8527 59.4814 69.6676 59.4565 70.4756C59.4281 71.287 59.1789 72.0877 58.6985 72.8066C58.2145 73.5291 57.5632 74.0736 56.8194 74.4117C56.0756 74.7498 55.2357 74.8743 54.3816 74.7604L49.1464 74.0665C48.9436 74.038 48.7478 74.0807 48.5913 74.1732L48.5308 74.2088C48.4026 74.3013 48.2959 74.4366 48.2318 74.6038L46.5627 78.9848C46.2531 79.7962 45.7335 80.4795 45.0645 80.9813C44.399 81.4831 43.5946 81.7928 42.7263 81.8639C41.8615 81.9351 41.0145 81.7572 40.2671 81.3693C39.5233 80.9813 38.897 80.3835 38.4699 79.6112L30.2489 64.7853L22.0136 79.7223C21.5901 80.4946 20.9566 81.096 20.2093 81.4875C19.4619 81.879 18.6149 82.0534 17.7501 81.9858C16.8782 81.9146 16.0775 81.6085 15.4084 81.1032C14.7464 80.6049 14.2232 79.9216 13.9101 79.1031L12.2481 74.7434C12.177 74.5512 12.0488 74.4018 11.8994 74.3128L11.8317 74.2701C11.6858 74.2025 11.515 74.174 11.3335 74.1989L6.10194 74.8964C5.24425 75.0103 4.40789 74.8858 3.66409 74.5477C2.92029 74.2132 2.26906 73.6686 1.78501 72.9426C1.30457 72.2273 1.05544 71.4301 1.02697 70.6187C0.9985 69.8073 1.19423 68.9922 1.60351 68.2413L9.37968 53.9557C9.1448 53.486 8.95262 52.9842 8.81026 52.4575L7.99528 49.436C7.84937 48.8951 7.63228 48.4288 7.34757 48.0373C7.05218 47.6387 6.67138 47.2864 6.20873 46.9839L3.48617 45.1974C1.97361 44.176 0.90957 42.724 0.38288 41.1012C-0.158069 39.4356 -0.140276 37.5885 0.528797 35.8376L1.63921 32.9194C1.83495 32.4069 1.93104 31.9015 1.93104 31.3997C1.93104 30.8979 1.83138 30.3925 1.63921 29.88L0.528797 26.9582C-0.136714 25.2072 -0.154507 23.3602 0.38288 21.6947C0.923828 20.0292 2.02709 18.5451 3.59295 17.5202L3.91325 17.3173C4.75314 16.7692 5.88134 17.0112 6.4258 17.8511C6.97386 18.691 6.73186 19.8192 5.89197 20.3637L5.5859 20.5665C4.73177 21.1253 4.13383 21.926 3.84202 22.8193C3.55375 23.7126 3.56442 24.7091 3.92743 25.6629L5.03785 28.5847C5.39373 29.5206 5.57523 30.4602 5.57523 31.3997C5.57523 32.3392 5.39729 33.2788 5.03785 34.2148L3.92743 37.133C3.56442 38.0868 3.55019 39.0833 3.84202 39.9766C4.12317 40.8449 4.69259 41.6243 5.50044 42.176L8.20159 43.9376C9.03436 44.4821 9.73191 45.137 10.2871 45.9021C10.8423 46.6744 11.2516 47.5392 11.5114 48.4965L12.3264 51.5038C12.5933 52.4896 13.1699 53.3046 13.9243 53.8526C14.6859 54.4078 15.6432 54.7032 16.6611 54.6534L19.7822 54.4968C20.7788 54.447 21.7254 54.568 22.6187 54.8562C23.5084 55.1445 24.3447 55.6072 25.1277 56.2335L27.5584 58.1909C28.3485 58.8279 29.2951 59.1446 30.2383 59.1446C31.1849 59.1446 32.1315 58.8279 32.9216 58.1909L35.3559 56.2299C36.1389 55.6 36.9716 55.1409 37.8649 54.8527C38.7653 54.5644 39.7084 54.4434 40.7014 54.4932L43.819 54.6498C44.8368 54.6997 45.7942 54.4007 46.5557 53.8491C47.3138 53.2975 47.8867 52.486 48.1537 51.5002L48.9722 48.4823C49.232 47.525 49.6377 46.6602 50.1929 45.8951C50.7516 45.1299 51.4456 44.4751 52.2784 43.9306L54.8942 42.2223C55.7483 41.6636 56.3462 40.8628 56.6345 39.9731C56.9156 39.1012 56.9121 38.1332 56.5811 37.2043L55.4387 34.2112C55.0828 33.2753 54.9013 32.3357 54.9013 31.3962C54.9013 30.4567 55.0793 29.5171 55.4387 28.5811L56.5491 25.6629C56.9015 24.7341 56.9228 23.7625 56.6595 22.8869L56.6345 22.8193C56.3463 21.9261 55.7484 21.1288 54.8942 20.5701L52.2784 18.8618C51.4457 18.3173 50.7481 17.6625 50.1929 16.8974C49.6342 16.1322 49.2284 15.2674 48.9686 14.3101L48.1536 11.2957C47.8867 10.31 47.3102 9.49491 46.5557 8.94334C45.7941 8.39172 44.8368 8.09278 43.8189 8.14259L40.6978 8.29919C39.7012 8.34901 38.7546 8.22801 37.8613 7.93974C36.968 7.65148 36.1318 7.18882 35.3523 6.56248L32.9216 4.60513C32.1315 3.96809 31.1849 3.64778 30.2418 3.64778C29.2986 3.64778 28.352 3.96452 27.5619 4.60158L25.1276 6.56248C24.3447 7.18884 23.512 7.65148 22.6187 7.93974C21.7254 8.23157 20.7787 8.34902 19.7822 8.29919L16.6646 8.14259C15.6788 8.09277 14.757 8.3668 14.0132 8.87928C13.2659 9.39532 12.6858 10.1569 12.3868 11.0787C12.0807 12.0325 11.0558 12.5592 10.102 12.2532C9.14818 11.9471 8.62149 10.9222 8.92752 9.96837C9.47915 8.26011 10.5575 6.84722 11.949 5.88987C13.3369 4.93251 15.0381 4.42359 16.8354 4.5126L19.9529 4.6692C20.5046 4.69767 21.0171 4.63361 21.4939 4.47702C21.9708 4.32043 22.4228 4.07131 22.8499 3.72965L25.2842 1.76875C26.7469 0.590739 28.4978 0 30.2417 0C31.9891 0 33.7365 0.590775 35.1992 1.76875L37.6299 3.7261C38.057 4.07132 38.5125 4.32043 38.9894 4.47702C39.4663 4.63006 39.9788 4.69411 40.5304 4.66921L43.6516 4.51261C45.52 4.42008 47.2781 4.97171 48.6945 5.99666C50.1145 7.02872 51.1858 8.53417 51.6768 10.342L52.4918 13.3564C52.6377 13.8938 52.8584 14.3636 53.1466 14.7622C53.4349 15.1572 53.8121 15.5095 54.2784 15.8155L56.8941 17.5238C58.4637 18.5488 59.5633 20.0328 60.1042 21.6948L60.1327 21.7944C60.6416 23.4315 60.6131 25.2358 59.9583 26.9513L58.8479 29.8766C58.6522 30.3891 58.5561 30.8945 58.5561 31.3963C58.5561 31.8981 58.6557 32.4035 58.8479 32.916L59.9938 35.941C60.6238 37.6599 60.6309 39.4679 60.1006 41.1014C59.5597 42.7669 58.4599 44.2474 56.8905 45.2724L54.2712 46.9771C53.8086 47.2832 53.4313 47.6355 53.143 48.0341C52.8547 48.4327 52.6377 48.9025 52.4918 49.4399L51.6732 52.4507C51.538 52.9525 51.3565 53.433 51.1358 53.8849L51.1394 53.8844ZM20.1129 32.0615C19.4011 31.3497 19.4011 30.1966 20.1129 29.4849C20.8247 28.7732 21.9778 28.7731 22.6895 29.4849L27.711 34.5065L37.7966 24.4245C38.5084 23.7128 39.6615 23.7128 40.3732 24.4245C41.0849 25.1363 41.085 26.2894 40.3732 27.0011L28.9994 38.3713C28.2876 39.0831 27.1345 39.0831 26.4228 38.3713L20.1129 32.0615ZM30.2413 51.8062C24.6076 51.8062 19.5043 49.5215 15.8135 45.8273C12.123 42.1368 9.83463 37.0299 9.83463 31.3996C9.83463 25.7659 12.1194 20.6626 15.8135 16.9719C19.5041 13.2813 24.611 10.993 30.2413 10.993C35.8715 10.993 40.971 13.2778 44.6654 16.9719C48.363 20.6624 50.6478 25.7694 50.6478 31.3996C50.6478 37.0333 48.363 42.1366 44.6689 45.8273L44.5657 45.9234C40.8787 49.5606 35.818 51.8062 30.2373 51.8062L30.2413 51.8062ZM18.3864 43.2543C21.4185 46.2864 25.6109 48.162 30.2413 48.162C34.8323 48.162 38.989 46.3221 42.0141 43.3397L42.0924 43.2542C45.1246 40.2221 47.0001 36.0297 47.0001 31.3994C47.0001 26.7693 45.1246 22.5769 42.0924 19.5445C39.0639 16.5124 34.8715 14.6368 30.2376 14.6368C25.6075 14.6368 21.4151 16.5124 18.3827 19.5445C15.3503 22.5767 13.475 26.769 13.475 31.3994C13.475 36.0294 15.3506 40.2218 18.3827 43.2542L18.3864 43.2543ZM11.9163 56.8921L4.79504 69.9778C4.70251 70.1522 4.65269 70.3302 4.6598 70.4903C4.66336 70.6398 4.71318 70.7857 4.80572 70.9245C4.89825 71.0633 5.02281 71.1701 5.1616 71.2306C5.30039 71.2946 5.4641 71.316 5.63493 71.2946L10.8665 70.5971C11.8345 70.469 12.7847 70.6576 13.5961 71.0989L13.7527 71.1807C14.6033 71.6861 15.2831 72.4691 15.6531 73.4478L17.3151 77.8074C17.3756 77.9782 17.4717 78.1099 17.5892 78.1953C17.703 78.2808 17.8596 78.3377 18.0376 78.3519C18.2298 78.3662 18.4006 78.3341 18.5323 78.2665C18.6497 78.206 18.7529 78.1028 18.8276 77.964L27.4686 62.2872C26.6999 61.9954 25.9633 61.5754 25.2871 61.0309L22.8563 59.0736C22.4293 58.7319 21.9773 58.4793 21.5004 58.3262C21.0235 58.1732 20.511 58.1091 19.9594 58.134L16.8382 58.2906C15.0232 58.3796 13.3114 57.8636 11.9235 56.8956L11.9163 56.8921ZM33.0204 62.2874L41.6472 77.843C41.7219 77.9818 41.8287 78.085 41.9497 78.1491C42.0778 78.2167 42.2522 78.2452 42.4443 78.2309C42.6223 78.2167 42.7753 78.1598 42.8892 78.0744C43.0031 77.9889 43.1027 77.8537 43.1632 77.6864L44.8323 73.3126C45.1847 72.3908 45.8145 71.6435 46.6011 71.1381L46.7292 71.0527C47.5762 70.5473 48.587 70.3231 49.619 70.4619L54.8541 71.1559C55.025 71.1773 55.1887 71.1559 55.3275 71.0919C55.4663 71.0313 55.5908 70.9246 55.6833 70.7822C55.7759 70.647 55.8221 70.4975 55.8257 70.3587C55.8328 70.1915 55.783 70.0135 55.6905 69.8391L48.619 56.8491C47.2168 57.842 45.4872 58.3723 43.6508 58.2797L40.5332 58.1231C39.978 58.0947 39.4655 58.1587 38.9922 58.3118C38.5154 58.4683 38.0634 58.721 37.6363 59.0627L35.202 61.0236C34.5258 61.5681 33.7891 61.9845 33.0204 62.2799L33.0204 62.2874ZM10.5816 16.4632C10.062 17.3245 8.94452 17.6021 8.08328 17.0825C7.22203 16.5629 6.94444 15.4454 7.46403 14.5841L7.5708 14.4097C8.09039 13.5485 9.20791 13.2709 10.0691 13.7905C10.9304 14.3101 11.208 15.4276 10.6884 16.2888L10.5816 16.4632Z" fill="#117463"/>
</svg>
