<svg width="95" height="95" viewBox="0 0 95 95" fill="none" xmlns="http://www.w3.org/2000/svg">
<path d="M28.6114 39.0774V90.2978C28.6114 92.6149 30.4965 94.5 32.8136 94.5H62.2093C64.5264 94.5 66.4118 92.6149 66.4118 90.2978V39.0774C66.4118 36.7603 64.5264 34.875 62.2093 34.875H32.8136C30.4963 34.875 28.6114 36.7601 28.6114 39.0774ZM58.6974 36.375L56.6983 41.7712H38.325L36.3255 36.375H58.6974ZM37.0995 42.7817C37.2084 43.0759 37.4891 43.2711 37.8028 43.2711H57.2203C57.534 43.2711 57.8147 43.0757 57.9236 42.7817L60.2972 36.375H62.2093C63.6994 36.375 64.9118 37.5872 64.9118 39.0774V90.2978C64.9118 91.7878 63.6994 93 62.2093 93H32.8136C31.3236 93 30.1114 91.7878 30.1114 90.2978V39.0774C30.1114 37.5874 31.3236 36.375 32.8136 36.375H34.7259L37.0995 42.7817Z" fill="#117463"/>
<path d="M43.1702 39.8231H51.8529C52.2671 39.8231 52.6029 39.4873 52.6029 39.0731C52.6029 38.6589 52.2671 38.3231 51.8529 38.3231H43.1702C42.756 38.3231 42.4202 38.6589 42.4202 39.0731C42.4202 39.4873 42.756 39.8231 43.1702 39.8231Z" fill="#117463"/>
<path d="M42.8355 71.8976C42.9414 71.9505 43.056 71.9766 43.17 71.9766C43.3301 71.9766 43.4888 71.9256 43.6213 71.8256L52.3041 65.2866C52.4923 65.1448 52.6029 64.923 52.6029 64.6875C52.6029 64.452 52.4923 64.2302 52.3041 64.0884L43.6213 57.5494C43.3942 57.3784 43.0901 57.3502 42.8355 57.4774C42.5811 57.6043 42.4202 57.8642 42.4202 58.1484V71.2266C42.4202 71.511 42.5811 71.7707 42.8355 71.8976ZM43.9202 59.6522L50.6061 64.6875L43.9202 69.7228V59.6522Z" fill="#117463"/>
<path d="M47.5116 78.5156C55.1066 78.5156 61.2857 72.3124 61.2857 64.6875C61.2857 57.0626 55.1066 50.8594 47.5116 50.8594C39.9165 50.8594 33.7376 57.0626 33.7376 64.6875C33.7376 72.3124 39.9165 78.5156 47.5116 78.5156ZM47.5116 52.3594C54.2796 52.3594 59.7857 57.8897 59.7857 64.6875C59.7857 71.4853 54.2796 77.0156 47.5116 77.0156C40.7436 77.0156 35.2376 71.4853 35.2376 64.6875C35.2376 57.8897 40.7436 52.3594 47.5116 52.3594Z" fill="#117463"/>
<path d="M79.6753 6.21187C71.5009 6.21187 64.8506 12.9257 64.8506 21.1779C64.8506 25.3118 66.5527 29.2678 69.5338 32.0925L68.91 38.4581C68.8811 38.7551 69.0309 39.0413 69.2916 39.1864C69.4056 39.2498 69.5312 39.2811 69.6564 39.2811C69.8175 39.2811 69.9782 39.2291 70.1117 39.1271L75.0098 35.3869C76.5111 35.8892 78.0786 36.1438 79.6755 36.1438C87.8499 36.1438 94.5002 29.4302 94.5002 21.1779C94.5002 12.9257 87.8496 6.21187 79.6753 6.21187ZM79.6753 34.644C78.1157 34.644 76.5876 34.374 75.1339 33.8413C74.8933 33.7532 74.6244 33.7939 74.4206 33.9495L70.5707 36.8893L71.0627 31.8679C71.0859 31.6307 70.9952 31.3967 70.818 31.2373C67.9787 28.6822 66.3504 25.0157 66.3504 21.1781C66.3504 13.7529 72.3279 7.71206 79.6751 7.71206C87.0223 7.71206 93 13.7528 93 21.1779C93 28.6031 87.0225 34.644 79.6753 34.644Z" fill="#117463"/>
<path d="M88.7985 19.2336C88.8488 18.8194 88.8345 18.4014 88.7571 17.9918C88.5533 16.9123 87.6039 16.1287 86.4997 16.1287H80.7163C80.4861 16.1287 80.2744 16.0341 80.1195 15.8621C79.9671 15.6924 79.8964 15.4753 79.9202 15.2503C80.2333 12.3124 79.2954 9.90863 77.529 9.12581C76.8187 8.81325 76.0059 8.87944 75.3551 9.30394C74.7019 9.73012 74.3117 10.4514 74.3117 11.2331V17.7596H72.3403C71.3378 17.7596 70.5223 18.5773 70.5223 19.5823V29.3959C70.5223 30.4009 71.3379 31.2186 72.3403 31.2186H84.9471C85.4034 31.2186 85.8398 31.0879 86.2087 30.8406C86.6537 30.5428 87.2657 30.0071 87.6544 29.1465C88.0899 28.1822 88.0397 27.267 87.9206 26.6692C87.8743 26.4358 87.9214 26.2059 88.0526 26.0222C88.4837 25.4196 88.7426 24.7226 88.8009 24.0066C88.8683 23.1819 88.6693 22.3536 88.2255 21.6109C88.089 21.3827 88.0944 21.0913 88.2392 20.8509C88.5411 20.3512 88.7291 19.8073 88.7985 19.2336ZM74.3119 29.7186H72.3405C72.165 29.7186 72.0225 29.5738 72.0225 29.3959V19.5823C72.0225 19.4044 72.1652 19.2596 72.3405 19.2596H74.3119V29.7186ZM86.9383 22.3802C87.2248 22.8598 87.3488 23.3659 87.3066 23.8843C87.2696 24.3364 87.1102 24.762 86.8331 25.1496C86.4636 25.6665 86.3239 26.3269 86.4501 26.9616C86.5262 27.3444 86.5597 27.9268 86.2879 28.5289C86.0451 29.0666 85.6573 29.4049 85.3746 29.5941C85.2533 29.6754 85.1055 29.7184 84.9476 29.7184H75.8119V11.2331C75.8119 10.956 75.9443 10.7107 76.1751 10.5602C76.4033 10.4117 76.6761 10.3892 76.9234 10.4979C78.045 10.995 78.6641 12.8839 78.4288 15.0913C78.3602 15.7356 78.57 16.3819 79.0041 16.8649C79.4406 17.3503 80.0646 17.6287 80.7163 17.6287H86.4997C86.8836 17.6287 87.213 17.8984 87.2831 18.2704C87.3323 18.5289 87.3411 18.7926 87.3096 19.0534C87.2657 19.4151 87.1466 19.7591 86.9554 20.076L86.9552 20.0762C86.5236 20.7922 86.517 21.6752 86.9383 22.3802Z" fill="#117463"/>
<path d="M13.5508 12.9548C11.6329 11.6993 8.90456 11.8033 7.06406 13.2023C6.18356 13.8713 5.08031 15.1828 4.82569 17.6302C4.39106 21.807 8.19075 26.5018 14.7424 29.8826C14.8502 29.9383 14.9681 29.9661 15.0863 29.9661C15.2042 29.9661 15.3223 29.9383 15.4301 29.8826C21.9816 26.5018 25.7814 21.807 25.3468 17.6304C25.0929 15.1834 23.9897 13.8718 23.1084 13.2023C21.2677 11.8033 18.5396 11.6993 16.6217 12.9548C15.9375 13.4025 15.4419 13.956 15.0863 14.4898C14.7304 13.956 14.235 13.4025 13.5508 12.9548ZM15.7987 16.4226C15.9767 15.8816 16.4274 14.8748 17.4433 14.2099C19.0346 13.1683 21.0411 13.5154 22.2011 14.3966C23.1392 15.1097 23.6957 16.2497 23.8549 17.7857C24.2113 21.2119 20.7803 25.3404 15.0863 28.3697C9.39244 25.3404 5.96119 21.2119 6.31763 17.7857C6.47756 16.2495 7.03387 15.1093 7.97156 14.3968C8.62969 13.8967 9.56025 13.5686 10.533 13.5686C11.2746 13.5686 12.0409 13.7595 12.7294 14.2099C13.7451 14.8748 14.1956 15.8816 14.3738 16.4226C14.4752 16.7302 14.7622 16.938 15.0863 16.938C15.4101 16.938 15.6973 16.7302 15.7987 16.4226Z" fill="#117463"/>
<path d="M0 20.9584C0 29.3098 6.76762 36.1042 15.0863 36.1042C16.7141 36.1042 18.3118 35.8459 19.8416 35.3357L24.8377 39.1286C24.9711 39.2299 25.1308 39.2812 25.2913 39.2812C25.4169 39.2812 25.5431 39.2497 25.6573 39.1858C25.9176 39.0403 26.067 38.7544 26.0376 38.4576L25.4019 32.0083C28.4381 29.1491 30.1723 25.1439 30.1723 20.9582C30.1727 12.6069 23.4049 5.8125 15.0863 5.8125C6.76762 5.8125 0 12.6069 0 20.9584ZM28.6727 20.9584C28.6727 24.8464 27.0129 28.5611 24.1191 31.1503C23.9407 31.3099 23.8494 31.5448 23.8729 31.7827L24.3767 36.8949L20.4285 33.8976C20.2961 33.7971 20.1364 33.7449 19.9749 33.7449C19.8885 33.7449 19.8017 33.7599 19.7183 33.7903C18.2359 34.3303 16.6774 34.6041 15.0864 34.6041C7.59487 34.6042 1.5 28.4827 1.5 20.9584C1.5 13.434 7.59488 7.3125 15.0863 7.3125C22.5778 7.3125 28.6727 13.434 28.6727 20.9584Z" fill="#117463"/>
<path d="M46.824 33.0184C46.9432 33.2919 47.2131 33.4688 47.5116 33.4688C47.8099 33.4688 48.0799 33.2919 48.1991 33.0184L50.3248 28.1396C56.9212 26.808 61.6665 21.0146 61.6665 14.2106C61.6665 6.37481 55.3166 0 47.5116 0C39.7065 0 33.3568 6.37481 33.3568 14.2106C33.3568 21.0146 38.1022 26.8082 44.6983 28.1396L46.824 33.0184ZM34.8566 14.2106C34.8566 7.20187 40.5338 1.5 47.5116 1.5C54.4896 1.5 60.1665 7.20187 60.1665 14.2106C60.1665 20.4197 55.7514 25.6875 49.6686 26.7366C49.4197 26.7795 49.2092 26.9447 49.1085 27.1761L47.5116 30.8411L45.9146 27.1761C45.8138 26.9447 45.6034 26.7795 45.3546 26.7366C39.2717 25.6875 34.8566 20.4197 34.8566 14.2106Z" fill="#117463"/>
<path d="M54.0413 8.71875H52.6434C50.9831 8.43825 49.3536 7.96912 47.7996 7.32319C46.0654 6.60225 44.4244 5.66194 42.9216 4.52831C42.7457 4.39556 42.5222 4.32938 42.306 4.37231C41.9419 4.4445 41.6966 4.75837 41.6966 5.10956V8.71875H41.0113C39.7933 8.71875 38.8026 9.71231 38.8026 10.9337V13.8163C38.8026 15.0377 39.7933 16.0312 41.0113 16.0312H41.6966V18.963C41.6966 19.3781 41.9316 19.7576 42.3034 19.9425C42.6639 20.1219 43.0939 20.0886 43.422 19.8551C44.7863 18.8842 46.2559 18.0686 47.7992 17.427C48.6394 17.0777 49.5021 16.7818 50.3792 16.5377V22.5471C50.3792 22.9612 50.715 23.2971 51.1292 23.2971H54.0236C54.4378 23.2971 54.7736 22.9612 54.7736 22.5471V15.9019C55.6157 15.6 56.2207 14.7962 56.2207 13.8517V10.8983C56.2207 9.6945 55.2448 8.71875 54.0413 8.71875ZM41.6966 14.5312H41.0113C40.6206 14.5312 40.3026 14.2106 40.3026 13.8163V10.9337C40.3026 10.5394 40.6206 10.2188 41.0113 10.2188H41.6966V14.5312ZM51.8263 14.655C50.2504 14.9608 48.7048 15.426 47.2234 16.0419C45.8167 16.6267 44.4673 17.3469 43.1964 18.1901V6.55988C44.4671 7.40306 45.8167 8.12325 47.2236 8.70806C48.7048 9.324 50.2504 9.789 51.8263 10.095V14.655ZM53.2736 21.7969H51.8792V16.1754C52.1331 16.1233 52.3877 16.0746 52.6432 16.0312H53.2736V21.7969ZM54.7207 13.8517C54.7207 14.2264 54.4159 14.5312 54.0413 14.5312H53.3263V10.2188H54.0413C54.4159 10.2188 54.7207 10.5234 54.7207 10.8983V13.8517Z" fill="#117463"/>
</svg>
