<svg width="543" height="297" viewBox="0 0 543 297" fill="none" xmlns="http://www.w3.org/2000/svg">
<path fill-rule="evenodd" clip-rule="evenodd" d="M271.538 25.1915H270.729L221.747 25.1915C211.296 25.1915 203.69 14.2213 198.722 3.36271C197.798 1.34491 195.813 0 193.594 0H5.4803C2.45362 0 0 2.45361 0 5.48029V92.3156C0 94.4513 1.25388 96.3687 3.1344 97.3811C9.69929 100.915 15.4766 105.854 15.4766 112.292L15.4766 147.582V148.164L15.4766 183.453C15.4766 189.891 9.69929 194.83 3.1344 198.364C1.25388 199.377 0 201.294 0 203.43V291.141C0 294.167 2.45361 296.621 5.48029 296.621H194.024C196.236 296.621 198.217 295.284 199.145 293.276C204.116 282.519 211.676 271.756 222.028 271.756H271.011H271.819H320.802C331.154 271.756 338.714 282.519 343.685 293.276C344.613 295.284 346.593 296.621 348.806 296.621H537.447C540.474 296.621 542.927 294.167 542.927 291.141V203.735C542.927 201.598 541.672 199.68 539.791 198.668C533.215 195.133 527.422 190.19 527.422 183.743V148.455V147.872V112.583C527.422 106.137 533.215 101.193 539.791 97.6578C541.672 96.6461 542.927 94.7279 542.927 92.5913V5.48029C542.927 2.45361 540.474 0 537.447 0H348.674C346.455 0 344.469 1.34491 343.546 3.3627C338.578 14.2213 330.972 25.1915 320.52 25.1915L271.538 25.1915Z" fill="white"/>
</svg>
