<svg width="82" height="96" viewBox="0 0 82 96" fill="none" xmlns="http://www.w3.org/2000/svg">
<path d="M78.2711 73.2104C79.8395 73.2104 81.1182 71.9356 81.1182 70.3633V62.4478C81.1182 62.0538 80.9212 61.6868 80.5928 61.4666C70.0812 54.4551 61.2469 45.8599 54.1927 35.8892V31.153C54.1927 30.5311 54.1772 29.9091 54.1502 29.2872C54.1424 29.0824 54.127 28.8777 54.1154 28.6729C54.0922 28.2596 54.0652 27.8462 54.0304 27.4329C54.0111 27.1857 53.9841 26.9423 53.957 26.695C53.9184 26.3281 53.8797 25.9611 53.8295 25.594C53.7948 25.3275 53.76 25.0609 53.7214 24.7982C53.6711 24.4583 53.617 24.1183 53.5591 23.7784C53.5127 23.5003 53.4625 23.2183 53.4084 22.9401C53.3466 22.6234 53.281 22.3104 53.2114 21.9937C53.1496 21.7001 53.0878 21.4026 53.0183 21.109C52.9526 20.8309 52.8792 20.5527 52.8058 20.2785C51.1021 13.6494 47.8572 7.4606 43.2523 2.2498C42.4565 1.34969 41.3092 0.832031 40.1039 0.832031C38.9025 0.832031 37.7551 1.34969 36.9593 2.2498C32.3545 7.4611 29.1094 13.6455 27.4058 20.2755C27.3324 20.5536 27.259 20.8318 27.1933 21.1138C27.1238 21.4074 27.062 21.701 27.0002 21.9946C26.9306 22.3113 26.8649 22.6281 26.8031 22.9449C26.749 23.223 26.7027 23.5012 26.6525 23.7832C26.5945 24.1231 26.5404 24.4631 26.4902 24.807C26.4516 25.0696 26.413 25.3362 26.3821 25.5989C26.3357 25.9659 26.2932 26.3367 26.2546 26.7038C26.2314 26.951 26.2043 27.1944 26.1812 27.4378C26.1464 27.8511 26.1194 28.2645 26.0962 28.6778C26.0846 28.8825 26.0691 29.0873 26.0614 29.292C26.0344 29.914 26.0189 30.5359 26.0189 31.1579V36.995C17.9914 47.5145 9.92169 54.8773 1.50766 59.3503C1.12135 59.5551 0.881836 59.953 0.881836 60.3895V70.3681C0.881836 71.9365 2.1567 73.2152 3.72894 73.2152H19.9775V81.9845C19.8539 82.5098 19.765 83.0468 19.765 83.6108C19.765 87.1765 25.3047 94.6861 25.9344 95.5287C26.1585 95.8262 26.5061 96 26.877 96C27.2479 96 27.5994 95.8262 27.8196 95.5287C28.4531 94.6827 33.989 87.1767 33.989 83.6108C33.989 83.0236 33.9156 82.4518 33.7804 81.9071V73.2112H46.4321V81.911C46.2969 82.4557 46.2235 83.0236 46.2235 83.6108C46.2235 87.1765 51.7632 94.6861 52.3929 95.5287C52.6131 95.8262 52.9646 96 53.3355 96C53.7063 96 54.0579 95.8262 54.2781 95.5287C54.9116 94.6827 60.4475 87.1767 60.4475 83.6108C60.4475 83.0468 60.3625 82.5098 60.2389 81.9883V73.2113L78.2711 73.2104ZM78.7617 63.0776V70.3634C78.7617 70.6338 78.5415 70.854 78.2711 70.854H60.2345V66.1178C60.2345 62.6024 57.5921 59.6973 54.1888 59.2724V39.88C60.957 48.8114 69.1688 56.595 78.7617 63.0776ZM53.3347 75.0845C52.6857 75.0845 52.1564 75.6099 52.1564 76.2627V82.4129H48.7879V66.1218C48.7879 63.6146 50.8276 61.5749 53.3348 61.5749C55.842 61.5749 57.8817 63.6146 57.8817 66.1218V82.4129H54.5131V76.2627C54.5131 75.6099 53.9837 75.0845 53.3347 75.0845ZM38.7248 3.80653C39.4357 3.00301 40.7761 3.00301 41.487 3.80653C45.0294 7.81645 47.7182 12.4406 49.472 17.3968C43.2524 19.9773 36.9598 19.9773 30.7402 17.3968C32.494 12.4404 35.1824 7.82011 38.7248 3.80653ZM31.4236 82.4127H28.055V76.2626C28.055 75.6135 27.5296 75.0843 26.8768 75.0843C26.2278 75.0843 25.6985 75.6097 25.6985 76.2626V82.4127H22.3299V82.3161C22.3608 82.2195 22.3763 82.1152 22.4111 82.0225C22.384 82.007 22.357 81.9877 22.3299 81.9723V66.1223C22.3299 63.6151 24.3697 61.5754 26.8769 61.5754C29.3841 61.5754 31.4238 63.6151 31.4238 66.1223L31.4236 82.4127ZM3.72887 70.8538C3.45845 70.8538 3.23826 70.6336 3.23826 70.3631V61.0878C11.0688 56.7881 18.5869 50.1015 26.0189 40.8182V59.2761C22.6155 59.701 19.9731 62.6061 19.9731 66.1215V70.8577L3.72887 70.8538ZM26.8764 92.8115C25.1109 90.2966 23.0172 86.9009 22.345 84.7686H25.9184C26.1308 85.0815 26.4708 85.2978 26.8764 85.2978C27.282 85.2978 27.622 85.0815 27.8345 84.7686H31.4079C30.7318 86.8971 28.6418 90.2928 26.8764 92.8115ZM33.7798 70.8538V66.1175C33.7798 62.8262 31.4619 60.0679 28.3714 59.3841L28.3752 31.1524C28.3752 30.2832 28.4139 29.4179 28.4679 28.5564C28.4795 28.3594 28.495 28.1585 28.5104 27.9615C28.5761 27.1078 28.6611 26.254 28.7809 25.4042C28.7924 25.323 28.8079 25.2458 28.8195 25.1647C28.9392 24.3573 29.0822 23.5537 29.2483 22.7541C29.2792 22.6073 29.3062 22.4566 29.341 22.3098C29.5303 21.4522 29.7428 20.5946 29.9861 19.7486C29.9939 19.7177 30.0055 19.6868 30.0132 19.6559C36.7195 22.3948 43.4956 22.391 50.1978 19.6559C50.2055 19.6868 50.2171 19.7177 50.2248 19.7486C50.4682 20.5946 50.6807 21.4523 50.8699 22.3098C50.9008 22.4566 50.9318 22.6073 50.9627 22.7541C51.1288 23.5537 51.2756 24.3573 51.3915 25.1647C51.403 25.2458 51.4185 25.323 51.4301 25.4042C51.5498 26.2541 51.6348 27.104 51.7005 27.9615C51.716 28.1585 51.7276 28.3594 51.7391 28.5564C51.7932 29.4218 51.8319 30.2871 51.8319 31.1524V59.3841C48.7414 60.0718 46.4235 62.8262 46.4235 66.1175V70.8538H33.7798ZM53.3344 92.8076C51.5689 90.2927 49.4752 86.897 48.803 84.7646H52.3764C52.5889 85.0775 52.9288 85.2938 53.3344 85.2938C53.7401 85.2938 54.08 85.0775 54.2925 84.7646H57.8659C57.1898 86.897 55.0959 90.2927 53.3344 92.8076Z" fill="#1AC1A4"/>
<path d="M47.9141 32.9837C47.551 29.2867 44.6073 26.3352 40.9103 25.9605C38.5462 25.721 36.2282 26.5438 34.5555 28.2165C32.8828 29.8892 32.0561 32.2032 32.2917 34.5675C32.6587 38.2645 35.6101 41.2159 39.3071 41.579C39.5698 41.606 39.8364 41.6176 40.0952 41.6176C42.1775 41.6176 44.167 40.8025 45.6504 39.323C47.3231 37.6541 48.1458 35.3441 47.9141 32.9837ZM43.9892 37.6581C42.8225 38.8248 41.1923 39.4003 39.5427 39.2381C36.9583 38.9832 34.8954 36.9202 34.6405 34.3359C34.4743 32.6747 35.0538 31.0523 36.2244 29.8817C37.2636 28.8464 38.6542 28.2747 40.1145 28.2747C40.3038 28.2747 40.4893 28.2824 40.6785 28.3017C43.2591 28.5605 45.3181 30.6273 45.5731 33.2078C45.7353 34.869 45.1559 36.4914 43.9892 37.6581Z" fill="#1AC1A4"/>
</svg>
